<?xml version="1.0" encoding="UTF-8"?>
<svg width="16px" height="16px" viewBox="0 0 16 16" version="1.1" xmlns="http://www.w3.org/2000/svg" xmlns:xlink="http://www.w3.org/1999/xlink">
    <!-- Generator: Sketch 53.2 (72643) - https://sketchapp.com -->
    <title>Path</title>
    <desc>Created with Sketch.</desc>
    <g id="Place-order" stroke="none" stroke-width="1" fill="none" fill-rule="evenodd">
        <g id="Payment-success" transform="translate(-937.000000, -107.000000)" fill="#9498B8">
            <g id="Group-4" transform="translate(227.000000, 83.000000)">
                <path d="M718,30.8899845 L724.660093,24.2298917 C724.966615,23.9233694 725.463586,23.9233694 725.770108,24.2298917 C726.076631,24.536414 726.076631,25.0333849 725.770108,25.3399072 L719.110015,32 L725.770108,38.6600928 C726.076631,38.9666151 726.076631,39.463586 725.770108,39.7701083 C725.463586,40.0766306 724.966615,40.0766306 724.660093,39.7701083 L718,33.1100155 L711.339907,39.7701083 C711.033385,40.0766306 710.536414,40.0766306 710.229892,39.7701083 C709.923369,39.463586 709.923369,38.9666151 710.229892,38.6600928 L716.889985,32 L710.229892,25.3399072 C709.923369,25.0333849 709.923369,24.536414 710.229892,24.2298917 C710.536414,23.9233694 711.033385,23.9233694 711.339907,24.2298917 L718,30.8899845 Z" id="Path"></path>
            </g>
        </g>
    </g>
</svg>